<svg width="220" height="60" viewBox="0 0 220 60" fill="none" xmlns="http://www.w3.org/2000/svg">
  <circle cx="30" cy="30" r="24" fill="#000000"/>
  <g>
    <path d="M30 18a12 12 0 1 0 0 24a12 12 0 1 0 0-24zm0 2a10 10 0 1 1 0 20a10 10 0 1 1 0-20zm0 4v4m0 8v4m-6-6h-4m20 0h-4m-8.5-5.5l-2.8-2.8m15.6 15.6l-2.8-2.8m0-10l2.8-2.8m-15.6 15.6l2.8-2.8" stroke="#000000" stroke-width="2" stroke-linecap="round"/>
  </g>
  <text x="65" y="32" font-family="Segoe UI, Arial, sans-serif" font-size="28" font-weight="bold" fill="#000000">Peça Fácil</text>
  <text x="65" y="50" font-family="Segoe UI, Arial, sans-serif" font-size="12" fill="#000000">Compatibilidade e economia para seu carro</text>
</svg>
